<svg width="30" height="31" viewBox="0 0 30 31" fill="white" xmlns="http://www.w3.org/2000/svg">
<g filter="url(#filter0_d_540_742)">
<path d="M23.2499 12.57V11.4225L24.6899 10.1625C24.9554 9.92854 25.1296 9.60827 25.1817 9.2583C25.2339 8.90833 25.1606 8.55119 24.9749 8.25L23.2049 5.25C23.0734 5.0222 22.8843 4.83299 22.6566 4.70135C22.4288 4.56971 22.1705 4.50027 21.9074 4.5C21.7444 4.49875 21.5823 4.52408 21.4274 4.575L19.6049 5.19C19.2903 4.98091 18.9621 4.79299 18.6224 4.6275L18.2399 2.7375C18.1714 2.3922 17.9835 2.08203 17.7093 1.86128C17.4351 1.64052 17.0919 1.52325 16.7399 1.53H13.2299C12.878 1.52325 12.5348 1.64052 12.2606 1.86128C11.9864 2.08203 11.7985 2.3922 11.7299 2.7375L11.3474 4.6275C11.0054 4.79295 10.6747 4.98086 10.3574 5.19L8.57245 4.545C8.41592 4.50422 8.25383 4.48902 8.09245 4.5C7.8294 4.50027 7.57105 4.56971 7.34332 4.70135C7.11558 4.83299 6.92647 5.0222 6.79495 5.25L5.02495 8.25C4.84989 8.55074 4.78483 8.90299 4.84093 9.24642C4.89703 9.58985 5.07079 9.9031 5.33245 10.1325L6.74995 11.43V12.5775L5.33245 13.8375C5.0634 14.0685 4.88489 14.3873 4.82859 14.7375C4.7723 15.0876 4.84187 15.4463 5.02495 15.75L6.79495 18.75C6.92647 18.9778 7.11558 19.167 7.34332 19.2987C7.57105 19.4303 7.8294 19.4997 8.09245 19.5C8.25546 19.5012 8.41758 19.4759 8.57245 19.425L10.3949 18.81C10.7096 19.0191 11.0378 19.207 11.3774 19.3725L11.7599 21.2625C11.8285 21.6078 12.0164 21.918 12.2906 22.1387C12.5648 22.3595 12.908 22.4767 13.2599 22.47H16.7999C17.1519 22.4767 17.4951 22.3595 17.7693 22.1387C18.0435 21.918 18.2314 21.6078 18.2999 21.2625L18.6824 19.3725C19.0245 19.2071 19.3552 19.0191 19.6724 18.81L21.4874 19.425C21.6423 19.4759 21.8044 19.5012 21.9674 19.5C22.2305 19.4997 22.4888 19.4303 22.7166 19.2987C22.9443 19.167 23.1334 18.9778 23.2649 18.75L24.9749 15.75C25.15 15.4493 25.2151 15.097 25.159 14.7536C25.1029 14.4101 24.9291 14.0969 24.6674 13.8675L23.2499 12.57ZM21.9074 18L19.3349 17.13C18.7327 17.6401 18.0445 18.0388 17.3024 18.3075L16.7699 21H13.2299L12.6974 18.3375C11.9613 18.0612 11.2767 17.6631 10.6724 17.16L8.09245 18L6.32245 15L8.36245 13.2C8.22377 12.4236 8.22377 11.6289 8.36245 10.8525L6.32245 9L8.09245 6L10.6649 6.87C11.2671 6.35992 11.9554 5.96119 12.6974 5.6925L13.2299 3H16.7699L17.3024 5.6625C18.0386 5.93882 18.7232 6.33686 19.3274 6.84L21.9074 6L23.6774 9L21.6374 10.8C21.7761 11.5764 21.7761 12.3711 21.6374 13.1475L23.6774 15L21.9074 18Z" fill="white"/>
<path d="M15 16.5C14.11 16.5 13.24 16.2361 12.4999 15.7416C11.7599 15.2471 11.1831 14.5443 10.8425 13.7221C10.5019 12.8998 10.4128 11.995 10.5865 11.1221C10.7601 10.2492 11.1887 9.44736 11.818 8.81802C12.4474 8.18868 13.2492 7.7601 14.1221 7.58647C14.995 7.41283 15.8998 7.50195 16.7221 7.84254C17.5443 8.18314 18.2471 8.75991 18.7416 9.49994C19.2361 10.24 19.5 11.11 19.5 12C19.506 12.5926 19.3937 13.1805 19.1697 13.7292C18.9457 14.2779 18.6145 14.7763 18.1954 15.1954C17.7763 15.6145 17.2779 15.9457 16.7292 16.1697C16.1805 16.3937 15.5926 16.506 15 16.5ZM15 9C14.6035 8.99077 14.2093 9.06205 13.8411 9.20954C13.473 9.35704 13.1386 9.57768 12.8581 9.85812C12.5777 10.1386 12.357 10.473 12.2095 10.8411C12.062 11.2093 11.9908 11.6035 12 12C11.9908 12.3965 12.062 12.7907 12.2095 13.1589C12.357 13.527 12.5777 13.8615 12.8581 14.1419C13.1386 14.4223 13.473 14.643 13.8411 14.7905C14.2093 14.938 14.6035 15.0092 15 15C15.3965 15.0092 15.7907 14.938 16.1589 14.7905C16.527 14.643 16.8615 14.4223 17.1419 14.1419C17.4223 13.8615 17.643 13.527 17.7905 13.1589C17.938 12.7907 18.0092 12.3965 18 12C18.0092 11.6035 17.938 11.2093 17.7905 10.8411C17.643 10.473 17.4223 10.1386 17.1419 9.85812C16.8615 9.57768 16.527 9.35704 16.1589 9.20954C15.7907 9.06205 15.3965 8.99077 15 9Z" fill="white"/>
</g>
<defs>
<filter id="filter0_d_540_742" x="-1" y="0" width="32" height="32" filterUnits="userSpaceOnUse" color-interpolation-filters="sRGB">
<feFlood flood-opacity="0" result="BackgroundImageFix"/>
<feColorMatrix in="SourceAlpha" type="matrix" values="0 0 0 0 0 0 0 0 0 0 0 0 0 0 0 0 0 0 127 0" result="hardAlpha"/>
<feOffset dy="4"/>
<feGaussianBlur stdDeviation="2"/>
<feComposite in2="hardAlpha" operator="out"/>
<feColorMatrix type="matrix" values="0 0 0 0 0 0 0 0 0 0 0 0 0 0 0 0 0 0 0.25 0"/>
<feBlend mode="normal" in2="BackgroundImageFix" result="effect1_dropShadow_540_742"/>
<feBlend mode="normal" in="SourceGraphic" in2="effect1_dropShadow_540_742" result="shape"/>
</filter>
</defs>
</svg>
